PathFileType	4	(X/Y/Z)	C:/Users/opensim2020/Desktop/walking_exp_matlab/subject03_walking13_straight_04.trc																																																																																																																																								
DataRate	CameraRate	NumFrames	NumMarkers	Units	OrigDataRate	OrigDataStartFrame	OrigNumFrames																																																																																																																																				
100	100	5	46	mm	100	2237	200																																																																																																																																				
Frame#	Time	LFHD			RFHD			LBHD			RBHD			C7			T10			CLAV			STRN			RBAK			LSHO			LUPA			LELB			LFRM			LWRA			LWRB			LFIN			RSHO			RUPA			RELB			RFRM			RWRA			RWRB			RFIN			LASI			RASI			LPSI			RPSI			LTHI			LKNE			LTIB			LANK			LHEE			LTOE			RTHI			RKNE			RTIB			RANK			RHEE			RTOE			*39			*40			*41			*42			*43			*44			*45		
		X1	Y1	Z1	X2	Y2	Z2	X3	Y3	Z3	X4	Y4	Z4	X5	Y5	Z5	X6	Y6	Z6	X7	Y7	Z7	X8	Y8	Z8	X9	Y9	Z9	X10	Y10	Z10	X11	Y11	Z11	X12	Y12	Z12	X13	Y13	Z13	X14	Y14	Z14	X15	Y15	Z15	X16	Y16	Z16	X17	Y17	Z17	X18	Y18	Z18	X19	Y19	Z19	X20	Y20	Z20	X21	Y21	Z21	X22	Y22	Z22	X23	Y23	Z23	X24	Y24	Z24	X25	Y25	Z25	X26	Y26	Z26	X27	Y27	Z27	X28	Y28	Z28	X29	Y29	Z29	X30	Y30	Z30	X31	Y31	Z31	X32	Y32	Z32	X33	Y33	Z33	X34	Y34	Z34	X35	Y35	Z35	X36	Y36	Z36	X37	Y37	Z37	X38	Y38	Z38	X39	Y39	Z39	X40	Y40	Z40	X41	Y41	Z41	X42	Y42	Z42	X43	Y43	Z43	X44	Y44	Z44	X45	Y45	Z45	X46	Y46	Z46
																																																																																																																																											
76	0.75	-465.05893	1603.43079	-1488.69019	-476.84262	1612.43469	-1356.8623	-593.10913	1561.31189	-1491.99011	-600.27411	1570.21472	-1362.84204	-631.18585	1402.20569	-1426.22693	-658.28571	1087.27417	-1428.46924	-506.61557	1329.32434	-1426.21179	-461.01471	1165.11218	-1429.146	-677.53326	1226.14795	-1323.24866	-555.96594	1361.74939	-1582.99011	-588.99963	1163.06189	-1647.16638	-600.73877	1039.5686	-1656.05835	-606.8924	909.13086	-1658.37451	-623.63287	788.12579	-1629.79248	-641.2489	801.58374	-1682.25269	-669.34509	718.52393	-1669.16101	-551.70673	1356.01428	-1266.92639	-502.53922	1145.88501	-1184.48389	-453.14136	1046.40063	-1169.68677	-374.77954	935.68359	-1175.41931	-304.04196	871.58209	-1218.5387	-326.7569	847.66046	-1176.00378	-268.91498	803.36426	-1189.19531	-478.94098	926.8208	-1536.83911	-500.11331	928.09894	-1299.43811	-645.5946	940.4715	-1505.31104	-656.69067	954.91522	-1356.34436	-464.66397	626.71417	-1586.7439	-392.58292	470.85541	-1537.54065	-370.43658	279.52179	-1543.16614	-309.11868	77.08006	-1509.823	-335.26392	30.71795	-1469.24207	-155.73692	82.56992	-1488.26221	-602.95697	641.44495	-1265.40503	-631.56628	463.23993	-1301.53845	-738.97998	299.47897	-1301.82007	-838.17102	104.97184	-1353.80371	-890.00769	89.38964	-1404.04895	-710.88171	34.70931	-1378.46082	-552.89435	1669.89819	-1448.52063	NaN	NaN	NaN	NaN	NaN	NaN	NaN	NaN	NaN	NaN	NaN	NaN	NaN	NaN	NaN	NaN	NaN	NaN
77	0.76	-452.43753	1602.54077	-1489.49683	-464.29477	1611.49597	-1357.6322	-580.76373	1560.58435	-1493.14929	-587.62067	1569.28674	-1363.72009	-618.5564	1401.16968	-1427.49231	-644.5174	1085.98694	-1429.1781	-493.60373	1328.47778	-1427.10999	-447.49472	1164.47986	-1429.96399	-664.54767	1224.70679	-1324.66699	-542.58533	1360.9187	-1584.02795	-576.78113	1162.46118	-1648.43042	-589.87915	1039.16809	-1657.57703	-596.92719	908.56165	-1659.13098	-615.75531	787.88574	-1630.33997	-632.09784	801.30328	-1683.34204	-663.38696	719.03687	-1669.66138	-539.51233	1355.06958	-1267.80249	-490.39456	1145.02612	-1185.18152	-440.87369	1045.69238	-1170.43103	-361.56723	935.72064	-1176.42151	-290.06104	872.88147	-1219.63037	-312.67191	848.14392	-1177.52551	-253.55011	805.22711	-1190.51978	-464.46906	926.48608	-1537.22363	-486.44464	926.7951	-1299.92358	-631.92889	940.13672	-1505.93445	-642.75049	953.85474	-1357.0564	-447.99219	627.56946	-1586.28259	-377.73383	471.16092	-1537.39844	-360.44302	277.4314	-1541.86499	-305.0603	73.88277	-1507.28198	-332.73236	29.18612	-1467.15479	-151.50513	75.37592	-1484.17041	-590.50751	640.44403	-1265.75867	-619.72705	462.11133	-1300.76233	-731.20959	300.75278	-1300.79712	-835.64087	108.8914	-1352.50513	-887.64825	94.92045	-1402.67029	-710.3186	34.66127	-1378.18237	NaN	NaN	NaN	NaN	NaN	NaN	NaN	NaN	NaN	NaN	NaN	NaN	NaN	NaN	NaN	NaN	NaN	NaN	NaN	NaN	NaN
78	0.77	-439.73624	1601.7489	-1490.30469	-451.58337	1610.54541	-1358.39807	-568.08807	1559.93945	-1494.03564	-574.92047	1568.48816	-1364.5249	-605.77502	1400.08093	-1428.74768	-630.6499	1084.76331	-1429.75159	-480.57669	1327.75964	-1428.03662	-433.84375	1164.03137	-1430.80261	-651.42114	1223.36487	-1326.073	-529.02325	1360.4314	-1585.17419	-564.16693	1161.98779	-1649.75867	-577.86932	1038.5946	-1658.56665	-586.34064	908.16492	-1660.01001	-607.04285	787.70844	-1631.13562	-622.24951	801.11975	-1684.54578	-656.13928	719.54504	-1670.37207	-527.21442	1354.33386	-1268.82068	-478.24963	1144.30994	-1186.15283	-428.75732	1044.97668	-1171.38538	-348.79526	935.56647	-1177.49268	-276.41663	873.81891	-1220.33142	-299.38898	848.25067	-1178.98242	-239.33174	806.67151	-1191.59839	-449.6012	926.35571	-1537.72327	-472.37595	925.43445	-1300.49585	-617.87036	939.9519	-1506.39551	-628.49127	952.88312	-1357.6156	-430.45255	628.41382	-1586.30518	-362.43945	471.16226	-1536.94153	-351.89771	274.99695	-1540.2196	-302.48923	70.49648	-1504.08972	-332.31476	27.3296	-1465.17688	-149.70438	66.88037	-1479.51929	-577.40125	639.36853	-1266.01746	-606.89032	460.85898	-1299.82043	-722.84509	302.00229	-1299.64807	-832.28906	113.21455	-1351.20947	-884.58435	101.11651	-1401.51355	-709.69	34.60861	-1377.96912	-525.19421	1667.1106	-1448.99854	NaN	NaN	NaN	NaN	NaN	NaN	NaN	NaN	NaN	NaN	NaN	NaN	NaN	NaN	NaN	NaN	NaN	NaN
79	0.78	-427.01718	1601.11304	-1491.12549	-438.93066	1609.73145	-1359.10876	-555.4657	1559.49536	-1495.04639	-562.43884	1567.84961	-1365.46545	-592.99078	1398.98511	-1429.95215	-616.4505	1083.56055	-1430.40051	-467.4415	1327.16956	-1429.06177	-419.84286	1163.87744	-1431.68726	-638.18127	1222.06665	-1327.51807	-515.74933	1359.90271	-1586.32739	-551.27875	1161.61792	-1651.03479	-565.65436	1038.31335	-1659.68677	-575.13831	907.85895	-1660.97546	-597.34589	787.64374	-1632.20081	-611.74536	801.02112	-1685.86279	-647.61359	720.06061	-1671.34656	-514.99457	1353.78467	-1269.94128	-466.26614	1143.56299	-1187.25659	-416.89142	1044.28772	-1172.55017	-336.67291	935.17712	-1178.48828	-263.62012	874.21808	-1221.01477	-286.86697	847.9704	-1180.29675	-226.1097	807.65186	-1192.45276	-434.98657	926.46808	-1538.28772	-457.92975	924.10016	-1301.17529	-602.95422	939.86743	-1507.06812	-614.16565	952.1308	-1358.16833	-412.68829	629.12958	-1585.96838	-348.58505	470.70697	-1536.92725	-343.97452	272.81613	-1537.61267	-298.59521	69.7282	-1502.63098	-330.73465	29.36166	-1464.44287	-145.78598	55.33915	-1475.01855	-563.46814	638.16736	-1266.2312	-593.07623	459.47375	-1298.70679	-713.73865	303.72604	-1298.87878	-828.31689	117.84225	-1350.16162	-880.7337	108.28088	-1400.52063	-709.13965	34.48128	-1377.70886	NaN	NaN	NaN	NaN	NaN	NaN	NaN	NaN	NaN	NaN	NaN	NaN	NaN	NaN	NaN	NaN	NaN	NaN	NaN	NaN	NaN
80	0.79	-414.18869	1600.99817	-1491.88831	-426.25119	1609.42041	-1359.81726	-542.65314	1559.40503	-1496.03467	-549.76117	1567.57568	-1366.23645	-580.49829	1398.34546	-1431.44263	-602.22858	1082.6709	-1431.22913	-454.43677	1327.00623	-1430.02869	-406.02298	1164.13855	-1432.44702	-625.01971	1221.15015	-1329.25977	-502.3476	1359.57275	-1587.51379	-537.63867	1161.25574	-1652.59912	-553.22571	1038.13	-1661.13269	-563.32294	907.63	-1662.07324	-586.98193	787.53815	-1633.30432	-600.47308	800.96313	-1687.23218	-637.73944	720.44116	-1672.59558	-502.77505	1353.43896	-1271.01233	-454.36346	1142.92322	-1188.59497	-405.24908	1043.63037	-1173.77441	-324.90094	934.53339	-1179.52478	-251.28337	874.2041	-1221.53625	-275.013	847.39014	-1181.53467	-213.8102	808.06635	-1193.09265	-420.47693	926.92816	-1538.93774	-443.32208	922.93213	-1301.88318	-588.29004	940.27264	-1508.06543	-599.73743	951.51093	-1358.87146	-395.59454	630.38245	-1585.37219	-334.94434	470.96017	-1536.37659	-333.61624	273.06061	-1535.80334	-291.452	69.78564	-1503.52417	-327.22827	31.99699	-1465.82568	-140.96945	46.69715	-1471.73279	-548.83258	636.87451	-1266.31177	-578.11755	458.1188	-1297.46057	-703.55646	305.68365	-1297.81372	-823.4787	123.42673	-1348.76978	-875.68707	116.41228	-1399.30225	-708.80127	34.08767	-1377.30383	NaN	NaN	NaN	NaN	NaN	NaN	NaN	NaN	NaN	NaN	NaN	NaN	NaN	NaN	NaN	NaN	NaN	NaN	NaN	NaN	NaN
